<?xml version="1.0" ?>
<svg id="Layer_2" style="enable-background:new 0 0 32 32;" version="1.1" viewBox="0 0 32 32" height="32" width="32" xml:space="preserve"
     xmlns="http://www.w3.org/2000/svg" xmlns:xlink="http://www.w3.org/1999/xlink">
    <g><path d="M16,8.25c1.06812,0,1.9375-0.86945,1.9375-1.9375v-3.875C17.9375,1.36938,17.06812,0.5,16,0.5   c-1.06805,0-1.9375,0.86938-1.9375,1.9375v3.875C14.0625,7.38055,14.93195,8.25,16,8.25z" fill="white"/>
        <path d="M6.3125,14.0625h-3.875C1.36945,14.0625,0.5,14.93188,0.5,16c0,1.06805,0.86945,1.9375,1.9375,1.9375h3.875   C7.38062,17.9375,8.25,17.06805,8.25,16C8.25,14.93188,7.38062,14.0625,6.3125,14.0625z" fill="white"/>
        <path d="M5.0401,26.9599c0.36609,0.36615,0.85236,0.56763,1.36987,0.56763c0.51746,0,1.00372-0.20148,1.36987-0.56763   l2.73975-2.73975c0.75494-0.75494,0.75494-1.9848,0-2.73975s-1.9848-0.75494-2.73975,0L5.0401,24.22015   C4.28516,24.9751,4.28516,26.20496,5.0401,26.9599z" fill="white"/>
        <path d="M14.0625,29.5625c0,1.06805,0.86945,1.9375,1.9375,1.9375c1.06812,0,1.9375-0.86945,1.9375-1.9375v-3.875   c0-1.06812-0.86938-1.9375-1.9375-1.9375c-1.06805,0-1.9375,0.86938-1.9375,1.9375V29.5625z" fill="white"/>
        <path d="M21.48047,24.22015l2.73975,2.73975c0.36609,0.36615,0.85236,0.56763,1.36987,0.56763   c0.51746,0,1.00372-0.20148,1.36987-0.56763c0.75494-0.75494,0.75494-1.9848,0-2.73975l-2.73975-2.73975   c-0.75494-0.75494-1.9848-0.75494-2.73975,0S20.72552,23.46521,21.48047,24.22015z" fill="white"/>
        <path d="M29.5625,14.0625h-3.875c-1.06805,0-1.9375,0.86938-1.9375,1.9375c0,1.06805,0.86945,1.9375,1.9375,1.9375h3.875   c1.06812,0,1.9375-0.86945,1.9375-1.9375C31.5,14.93188,30.63062,14.0625,29.5625,14.0625z" fill="white"/>
        <path d="M22.85034,11.08716c0.51746,0,1.00372-0.20148,1.36987-0.56763l2.73975-2.73975c0.75494-0.75494,0.75494-1.9848,0-2.73975   s-1.9848-0.75494-2.73975,0l-2.73975,2.73975c-0.75494,0.75494-0.75494,1.9848,0,2.73975   C21.84656,10.88568,22.33282,11.08716,22.85034,11.08716z" fill="white"/></g></svg>